<svg xmlns="http://www.w3.org/2000/svg" width="566" height="517" viewBox="0 0 566 517" fill="none">
<g fill="none" stroke="#0279F6" stroke-width="18" stroke-linecap="round" stroke-linejoin="round">
<path d="M 302 33 L 303 34 L 309 34 L 319 38 L 325 43 L 521 173 L 527 179 L 530 185 L 531 200 L 527 211 L 521 217 L 375 311 L 309 355 L 297 360 L 283 361 L 282 362 L 281 361 L 267 360 L 256 356 L 42 216 L 35 207 L 33 193 L 36 182 L 43 174 L 169 90 L 210 61 L 217 58 L 224 58 L 229 60 L 237 67 L 247 69 L 256 64 L 277 44 L 286 37 L 293 34 Z"/>
<path d="M 60 280 L 43 291 L 36 298 L 34 304 L 33 314 L 35 323 L 41 331 L 113 378 L 255 476 L 261 479 L 273 482 L 291 482 L 305 478 L 311 475 L 423 398 L 521 333 L 527 327 L 530 321 L 531 316 L 530 302 L 527 296 L 522 291 L 505 280"/>
<path d="M 368 381 L 366 383 L 362 385 L 359 388 L 356 389 L 354 391 L 353 391 L 351 393 L 350 393 L 327 409 L 324 410 L 321 413 L 318 414 L 313 418"/>
</g></svg>